# xmcd
#
# Track frame offsets:
#	150
#	38703
#	80752
#	139568
#	170851
#	218339
#
# Disc length: 3482 seconds
#
# Revision: 0
# Processed by: cddbd v1.5.2PL0 Copyright (c) Steve Scherf et al.
# Submitted via: dBpowerAMP V4.0
#
DISCID=4b0d9806
DTITLE=Underworld - Rotterdam Massilo. Holland 29.01.2008 [CD2)
DYEAR=2008
DGENRE=
TTITLE0=Crocodile
TTITLE1=Deep Arch
TTITLE2=Air Towel
TTITLE3=Nu Train
TTITLE4=Two Months Off
TTITLE5=Cowgirl/Rez
EXTD=
EXTT0=
EXTT1=
EXTT2=
EXTT3=
EXTT4=
EXTT5=
PLAYORDER=
